# xmcd
#
# Track frame offsets:
# 150
# 21312
# 37693
# 55282
# 70184
# 82157
# 95403
# 111408
# 126726
# 149176
# 165927
# 183428
#
# Disc length: 2705 seconds
#
#
# Revision: 0
# Processed by: cddbd v1.5.1PL0 Copyright (c) Steve Scherf et al.
# Submitted via: FreeRIP 2.35 
#
DISCID=af0a8f0c
DTITLE=Janet Z - Gruene Rain
DYEAR=2004
DGENRE=Blues
TTITLE0=Say Something Special
TTITLE1=This Highway
TTITLE2=I Can't Sleep
TTITLE3=Searching and Fearless
TTITLE4=Tuesday Morning
TTITLE5=Gruene Rain
TTITLE6=C U Again
TTITLE7=With Me
TTITLE8=Song for the Homeless
TTITLE9=I Still Know How to Ride
TTITLE10=Without You
TTITLE11=UBAyBU
EXTD=Texas Music
EXTT0=
EXTT1=
EXTT2=
EXTT3=
EXTT4=
EXTT5=
EXTT6=
EXTT7=
EXTT8=
EXTT9=
EXTT10=
EXTT11=
PLAYORDER=
